<svg xmlns="http://www.w3.org/2000/svg" width="365.393" height="377.983" viewBox="0 0 365.393 377.983">
  <g id="Group_2001" data-name="Group 2001" transform="translate(-255.915 -516.5)">
    <path id="Path_5605" data-name="Path 5605" d="M285.22,130.2s-2.939,21.514-28.336,34.947c-27.076,14.273-7.871,57.3,39.25,58.77,51.109,1.574,79.025-44.5,40.824-102.218Z" transform="translate(58.326 443.459)" fill="#3a1616"/>
    <g id="Group_1974" data-name="Group 1974" transform="translate(338.723 552.88)">
      <path id="Path_5606" data-name="Path 5606" d="M298.4,195.351l.315-37.151h22.669l.42,37.571Z" transform="translate(-277.73 -107.615)" fill="#d6906e"/>
      <path id="Path_5607" data-name="Path 5607" d="M295.9,168.674c-1.154-3.253,7.871,15.217,17.211,13.958,8.081-1.049,9.445-15.532,9.445-15.532s-3.778,5.562-12.279,5.562C300.837,172.662,295.9,168.674,295.9,168.674Z" transform="translate(-277.858 -107.175)" fill="#3a1616"/>
      <path id="Path_5608" data-name="Path 5608" d="M283.117,140.12c2.834,16.582,12.489,30.435,27.916,30.435s26.027-13.748,27.916-30.435c2.2-18.89-12.489-30.12-27.916-30.12S280.179,123.223,283.117,140.12Z" transform="translate(-278.504 -110)" fill="#3a1616"/>
      <g id="Group_1969" data-name="Group 1969" transform="translate(0 36.71)">
        <path id="Path_5609" data-name="Path 5609" d="M287.1,146.995s-1.994-3.148-6.192-1.574c-4.093,1.574-2.309,11.649,3.988,12.909a4.78,4.78,0,0,0,3.988-1.049S287.305,149.829,287.1,146.995Z" transform="translate(-278.704 -144.98)" fill="#d6906e"/>
        <g id="Group_1968" data-name="Group 1968" transform="translate(3.039 3.898)">
          <g id="Group_1967" data-name="Group 1967">
            <path id="Path_5610" data-name="Path 5610" d="M281.6,148.805s3.463-1.154,5.982,3.988" transform="translate(-281.6 -148.694)" fill="none" stroke="#161311" stroke-linecap="round" stroke-linejoin="round" stroke-miterlimit="10" stroke-width="1.024"/>
          </g>
        </g>
      </g>
      <g id="Group_1972" data-name="Group 1972" transform="translate(54.148 36.71)">
        <path id="Path_5611" data-name="Path 5611" d="M332.084,146.995s1.994-3.148,6.192-1.574,2.309,11.649-3.988,12.909a4.78,4.78,0,0,1-3.988-1.049S331.874,149.829,332.084,146.995Z" transform="translate(-330.3 -144.98)" fill="#d6906e"/>
        <g id="Group_1971" data-name="Group 1971" transform="translate(1.154 3.898)">
          <g id="Group_1970" data-name="Group 1970">
            <path id="Path_5612" data-name="Path 5612" d="M337.382,148.805s-3.463-1.154-5.982,3.988" transform="translate(-331.4 -148.694)" fill="none" stroke="#161311" stroke-linecap="round" stroke-linejoin="round" stroke-miterlimit="10" stroke-width="1.024"/>
          </g>
        </g>
      </g>
      <path id="Path_5613" data-name="Path 5613" d="M286.3,139.783c0,6.4.63,18.576,4.828,26.552,3.883,7.556,10.915,11.334,19.415,11.334,8.4,0,16.057-5.667,19.415-12.174,5.038-9.76,4.828-25.607,4.828-25.607s0-23.088-24.033-23.088C285.565,116.8,286.3,139.783,286.3,139.783Z" transform="translate(-278.329 -109.664)" fill="#d6906e"/>
      <g id="Group_1973" data-name="Group 1973" transform="translate(13.743 26.972)">
        <path id="Path_5614" data-name="Path 5614" d="M304.918,137.694,291.8,141.052s.63-3.673,5.982-5.037C303.134,134.755,304.918,137.694,304.918,137.694Z" transform="translate(-291.8 -135.701)" fill="#1a1a1a"/>
        <path id="Path_5615" data-name="Path 5615" d="M312.3,137.694l13.118,3.358s-.63-3.673-5.982-5.037C314.084,134.755,312.3,137.694,312.3,137.694Z" transform="translate(-290.786 -135.701)" fill="#1a1a1a"/>
        <path id="Path_5616" data-name="Path 5616" d="M307.525,148,307,152.723h3.358" transform="translate(-291.048 -135.093)" fill="none" stroke="#161311" stroke-linecap="round" stroke-linejoin="round" stroke-miterlimit="10" stroke-width="1.024"/>
        <path id="Path_5617" data-name="Path 5617" d="M319.1,156.3H300s.525,7.031,9.55,7.031C317.841,163.331,319.1,156.3,319.1,156.3Z" transform="translate(-291.394 -134.682)" fill="#fff"/>
        <path id="Path_5618" data-name="Path 5618" d="M302.017,144.84s-3.673-1.889-6.717,0" transform="translate(-291.627 -135.29)" fill="none" stroke="#161311" stroke-linecap="round" stroke-linejoin="round" stroke-miterlimit="10" stroke-width="1.024"/>
        <path id="Path_5619" data-name="Path 5619" d="M321.917,144.84s-3.673-1.889-6.717,0" transform="translate(-290.642 -135.29)" fill="none" stroke="#161311" stroke-linecap="round" stroke-linejoin="round" stroke-miterlimit="10" stroke-width="1.024"/>
      </g>
      <path id="Path_5620" data-name="Path 5620" d="M332.165,148.028s-6.4-12.7-1.889-23.928c0,0,4.408.1,4.3,17.631Z" transform="translate(-276.233 -109.302)" fill="#3a1616"/>
      <path id="Path_5621" data-name="Path 5621" d="M286.814,148.028s6.4-13.433,1.889-23.928c0,0-4.408.1-4.3,17.631Z" transform="translate(-278.423 -109.302)" fill="#3a1616"/>
      <path id="Path_5622" data-name="Path 5622" d="M338.507,134.574s-34.633-2.1-44.707-16.057c0,0,3.253-8.711,18.681-6.3C328.013,114.529,338.507,134.574,338.507,134.574Z" transform="translate(-277.958 -109.911)" fill="#3a1616"/>
      <path id="Path_5623" data-name="Path 5623" d="M308.523,114.7s-9.76,20.36-23.823,19.625C284.7,134.325,292.466,114.91,308.523,114.7Z" transform="translate(-278.408 -109.767)" fill="#3a1616"/>
    </g>
    <g id="Group_1975" data-name="Group 1975" transform="translate(302.617 744.828)">
      <path id="Path_5624" data-name="Path 5624" d="M290.477,420.935s10.285-51,16.267-64.857a1.462,1.462,0,0,1,2.729.21c1.469,5.247,3.358,20.884,2.519,66.851v18.785h40.3l6.3-45.232c.315-3.463,13.223-60.135-19.31-103.793H276.1s-25.5,43.868-29.07,97.6c-.735,11.964-1.049,30.225-2.729,51.319h41.454Z" transform="translate(-244.3 -292.9)" fill="#2e0c8e"/>
      <line id="Line_21" data-name="Line 21" x2="20.675" y2="8.396" transform="translate(45.127 54.992)" fill="none" stroke="#533d85" stroke-miterlimit="10" stroke-width="1.992"/>
    </g>
    <g id="Group_1980" data-name="Group 1980" transform="translate(255.915 597.737)">
      <g id="Group_1976" data-name="Group 1976" transform="translate(22.013 49.385)">
        <path id="Path_5625" data-name="Path 5625" d="M259.978,199.8s-13.223,1.889-22.878,35.052l26.027,14.9,15.427-21.2Z" transform="translate(-219.968 -199.8)" fill="#ff07a2"/>
        <path id="Path_5626" data-name="Path 5626" d="M263.934,248.053s-17.316,27.181-21.409,32.009c-4.2,5.037-10.7,7.556-16.267,4.093h0a11.555,11.555,0,0,1-4.3-14.9L239.9,234.2Z" transform="translate(-220.776 -198.098)" fill="#d6906e"/>
      </g>
      <g id="Group_1979" data-name="Group 1979" transform="translate(0)">
        <path id="Path_5627" data-name="Path 5627" d="M222.788,199.8l20.779,67.481-22.144,9.55L208.2,200.849Z" transform="translate(-199.384 -150.415)" fill="#d6906e"/>
        <g id="Group_1978" data-name="Group 1978">
          <g id="Group_1977" data-name="Group 1977">
            <path id="Path_5628" data-name="Path 5628" d="M221.315,204.163l3.253-3.148a13.082,13.082,0,0,0,4.093-8.606l.84-9.13s.525-4.828-9.025-3.568S210.3,180.969,210.4,183.8c0,0,1.784,3.988,7.976,4.723Z" transform="translate(-199.276 -151.419)" fill="#d6906e"/>
            <path id="Path_5629" data-name="Path 5629" d="M209.665,205.735s-9.445-5.247-9.865-21.829a5.687,5.687,0,0,1,2.519-4.723c2.414-1.574,9.55-5.667,13.328-3.043l6.612,8.606-.42,19.73Z" transform="translate(-199.8 -151.627)" fill="#d6906e"/>
            <path id="Path_5630" data-name="Path 5630" d="M223.459,182.923l5.247-26.657A2.969,2.969,0,0,0,226.4,152.8h0a2.9,2.9,0,0,0-3.463,2.2l-4.618,20.15-2.2.42-7.766-20.465a2.749,2.749,0,0,0-3.568-1.574h0a2.7,2.7,0,0,0-1.574,3.148l7.556,28.231Z" transform="translate(-199.636 -152.743)" fill="#d6906e"/>
          </g>
          <path id="Path_5631" data-name="Path 5631" d="M223.518,179.506s-13.013-1.259-13.118,4.3c0,0-.315,4.2,7.976,4.723a7.752,7.752,0,0,0-5.352,7.136" transform="translate(-199.276 -151.425)" fill="none" stroke="#bf704f" stroke-miterlimit="10" stroke-width="0.996"/>
        </g>
        <line id="Line_22" data-name="Line 22" x2="5.562" y2="17.841" transform="translate(36.941 93.568)" fill="none" stroke="#bf704f" stroke-miterlimit="10" stroke-width="0.996"/>
      </g>
    </g>
    <g id="Group_1982" data-name="Group 1982" transform="translate(403.996 653.104)">
      <g id="Group_1981" data-name="Group 1981" transform="translate(2.834 19.31)">
        <path id="Path_5632" data-name="Path 5632" d="M343.6,237.228s20.57,72.413,28.441,133.073l13.223-2.519s-1.994-88.89-15.427-143.882Z" transform="translate(-343.6 -223.9)" fill="#d6906e"/>
        <path id="Path_5633" data-name="Path 5633" d="M384.069,358.1s19.94,29.49-3.988,42.713a3.839,3.839,0,0,1-4.723-.84l-.1-.21a3.855,3.855,0,0,1,.21-5.142c3.358-3.463,7.976-10.6.735-19.94,0,0-3.778.944-3.148,8.606a3.2,3.2,0,0,1-3.463,3.463h0a3.007,3.007,0,0,1-2.729-2.414C365.6,379.3,363.5,366.916,371.58,360.2Z" transform="translate(-342.51 -217.261)" fill="#d6906e"/>
      </g>
      <path id="Path_5634" data-name="Path 5634" d="M356.327,205.5s18.891,6.192,22.249,36.1l-30.75,11.649L340.9,234.36Z" transform="translate(-340.9 -205.5)" fill="#dd4c88"/>
    </g>
    <g id="Group_1984" data-name="Group 1984" transform="translate(317.939 636.523)">
      <path id="Path_5635" data-name="Path 5635" d="M342.228,199.1l18.471,7.031-21.934,83.118H275.587l-16.687-89.2,21.934-5.142Z" transform="translate(-258.9 -189.443)" fill="#ff07a2"/>
      <g id="Group_1983" data-name="Group 1983" transform="translate(3.148 31.484)">
        <rect id="Rectangle_129" data-name="Rectangle 129" width="63.178" height="8.606" transform="translate(13.538 68.321)" fill="#1a1a1a"/>
        <line id="Line_23" data-name="Line 23" x1="4.933" y1="22.249" fill="none" stroke="#c12d71" stroke-miterlimit="10" stroke-width="1.992"/>
        <line id="Line_24" data-name="Line 24" y1="24.768" x2="6.717" transform="translate(87.631 2.099)" fill="none" stroke="#c12d71" stroke-miterlimit="10" stroke-width="1.992"/>
      </g>
      <path id="Path_5636" data-name="Path 5636" d="M316.951,189.7l24.348,9.655s-2.834,9.55-31.379,9.55c-24.872,0-30.12-13.748-30.12-13.748l23.613-5.457Z" transform="translate(-257.866 -189.7)" fill="#d6906e"/>
    </g>
    <path id="Path_5637" data-name="Path 5637" d="M471.619,306.7l26.447,135.172H446.852l-19.73-89.415-4.513-.21v89.625H371.5L374.124,306.7Z" transform="translate(64.609 452.611)" fill="#ff07a2"/>
    <line id="Line_25" data-name="Line 25" x2="29.175" transform="translate(478.613 804.228)" fill="none" stroke="#c12d71" stroke-miterlimit="10" stroke-width="1.992"/>
    <path id="Path_5638" data-name="Path 5638" d="M489.775,218.575,537.946,206.3a18.308,18.308,0,0,0,12.8-22.249h0a18.3,18.3,0,0,0-22.774-13.013L479.7,184.782Z" transform="translate(69.962 445.864)" fill="#e8aba2"/>
    <path id="Path_5639" data-name="Path 5639" d="M496.621,175.6,449.5,181.792l13.538,48.066,44.917-9.34Z" transform="translate(68.468 446.125)" fill="#ede7f7"/>
    <g id="Group_1987" data-name="Group 1987" transform="translate(541.867 516.5)">
      <g id="Group_1985" data-name="Group 1985" transform="translate(0 0)">
        <path id="Path_5640" data-name="Path 5640" d="M517.953,120.74c1.154-7.556-1.679-17.211-1.679-17.211l1.049-17a3.13,3.13,0,0,0-2.414-3.463h0a3.29,3.29,0,0,0-3.883,2.309l-1.364,10.915h-1.469L506.2,78.657A3.529,3.529,0,0,0,502,75.4h0a3.531,3.531,0,0,0-2.939,3.673l1.364,19-1.574.315-5.352-19a4.043,4.043,0,0,0-5.037-2.834h0a4.1,4.1,0,0,0-2.729,4.723L491.3,103l-1.994.525-7.346-15.217a3.28,3.28,0,0,0-4.723-1.364h0a3.3,3.3,0,0,0-1.364,3.988l7.451,20.36-6.192-.1a4.883,4.883,0,0,0-4.828,5.352h0a4.954,4.954,0,0,0,3.568,4.2l8.081,1.994a34.041,34.041,0,0,0,14.483,10.81C498.433,133.439,517.009,126.512,517.953,120.74Z" transform="translate(-472.273 -75.335)" fill="#e8aba2"/>
        <path id="Path_5641" data-name="Path 5641" d="M482.6,109.5s11.754-.735,18.681,5.877" transform="translate(-471.762 -73.646)" fill="none" stroke="#d8857d" stroke-miterlimit="10" stroke-width="0.996"/>
      </g>
      <g id="Group_1986" data-name="Group 1986" transform="translate(25.111 45.405)">
        <path id="Path_5642" data-name="Path 5642" d="M549.3,184.507,516.77,118.6l-20.57,8.606,20.779,72.623Z" transform="translate(-496.2 -118.6)" fill="#e8aba2"/>
        <line id="Line_26" data-name="Line 26" x2="3.148" y2="11.124" transform="translate(14.588 59.61)" fill="none" stroke="#d8857d" stroke-miterlimit="10" stroke-width="0.996"/>
      </g>
    </g>
    <path id="Path_5643" data-name="Path 5643" d="M411.216,179,372.7,186.976l1.364,126.041h97.5l3.043-129.4-36.731-3.253Z" transform="translate(64.669 446.293)" fill="#ede7f7"/>
    <line id="Line_27" data-name="Line 27" y1="16.267" transform="translate(538.223 658.352)" fill="none" stroke="#ab8bdb" stroke-miterlimit="10" stroke-width="1.992"/>
    <path id="Path_5644" data-name="Path 5644" d="M398.164,238.728h0A11.959,11.959,0,0,1,386.2,226.764V214.8h23.928v11.964A12.026,12.026,0,0,1,398.164,238.728Z" transform="translate(65.337 448.064)" fill="#4460f1"/>
    <path id="Path_5645" data-name="Path 5645" d="M347.519,217.1l-27.811,50.375a18.569,18.569,0,0,0,6.927,24.977h0a18.51,18.51,0,0,0,24.872-6.192l28.86-46.072Z" transform="translate(61.934 448.178)" fill="#e8aba2"/>
    <g id="Group_1988" data-name="Group 1988" transform="translate(400.742 632.7)">
      <path id="Path_5646" data-name="Path 5646" d="M337.8,225.667l39.88,25.607,6.4-30.54c6.717-10.915,15.322-24.033,4.513-30.959h0a23.438,23.438,0,0,0-32.429,7.136Z" transform="translate(-337.8 -186.057)" fill="#ede7f7"/>
      <line id="Line_28" data-name="Line 28" y1="34.213" transform="translate(37.361 29.325)" fill="#ede7f7"/>
    </g>
    <g id="Group_1991" data-name="Group 1991" transform="translate(390.772 702.273)">
      <g id="Group_1989" data-name="Group 1989" transform="translate(0 4.564)">
        <path id="Path_5647" data-name="Path 5647" d="M332.813,292.8l72.938-1.994,5.037-23.613L328.3,256.7Z" transform="translate(-328.3 -256.7)" fill="#e8aba2"/>
        <line id="Line_29" data-name="Line 29" x1="19.1" y1="2.414" transform="translate(17.946 2.309)" fill="none" stroke="#d8857d" stroke-miterlimit="10" stroke-width="0.996"/>
      </g>
      <g id="Group_1990" data-name="Group 1990" transform="translate(71.889)">
        <path id="Path_5648" data-name="Path 5648" d="M402.3,267.864s9.34-12.594,20.36,0l-4.408,8.711Z" transform="translate(-396.528 -251.86)" fill="#e8aba2"/>
        <path id="Path_5649" data-name="Path 5649" d="M412.934,255.026,410.1,272.657l22.249,2.519,3.568-17a3.115,3.115,0,0,0-2.729-3.778L416.5,252.4A2.984,2.984,0,0,0,412.934,255.026Z" transform="translate(-396.142 -252.351)" fill="#1a1a1a"/>
        <path id="Path_5650" data-name="Path 5650" d="M407.295,266.2l26.342.63a5.67,5.67,0,0,1,5.457,5.667h0a5.609,5.609,0,0,1-3.148,5.037l-1.364.63s2.729,19.94-13.118,22.354-24.663-10.18-24.663-10.18Z" transform="translate(-396.8 -251.666)" fill="#e8aba2"/>
      </g>
    </g>
    <path id="Path_5651" data-name="Path 5651" d="M437.6,182.275,437.29,142.5H408.43l-.63,38.725Z" transform="translate(66.405 444.488)" fill="#e8aba2"/>
    <path id="Path_5652" data-name="Path 5652" d="M406.106,153.579c-1.469-3.463,10.075,19,21.829,17.736C438.01,170.266,438.43,151.9,438.43,151.9s-3.568,5.772-14.273,5.772C412.3,157.777,406.106,153.579,406.106,153.579Z" transform="translate(66.315 444.953)" fill="#3a1616"/>
    <path id="Path_5653" data-name="Path 5653" d="M453.33,123.193c-3.043,17.736-13.433,32.639-29.91,32.639-16.582,0-27.916-14.8-29.91-32.639C391.2,102.833,406.944,89.4,423.421,89.4,440,89.3,456.584,104.932,453.33,123.193Z" transform="translate(65.687 441.861)" fill="#2f1118"/>
    <g id="Group_1994" data-name="Group 1994" transform="translate(513.14 572.045)">
      <path id="Path_5654" data-name="Path 5654" d="M446.789,130.506a5.371,5.371,0,0,1,6.612-1.784c4.408,1.679,2.414,12.489-4.2,13.853a5.278,5.278,0,0,1-4.3-1.154C444.9,141.525,446.474,133.549,446.789,130.506Z" transform="translate(-444.9 -128.262)" fill="#e8aba2"/>
      <g id="Group_1993" data-name="Group 1993" transform="translate(1.154 4.112)">
        <g id="Group_1992" data-name="Group 1992">
          <path id="Path_5655" data-name="Path 5655" d="M452.4,132.306s-3.673-1.259-6.4,4.2" transform="translate(-446 -132.18)" fill="none" stroke="#161311" stroke-linecap="round" stroke-linejoin="round" stroke-miterlimit="10" stroke-width="1.098"/>
        </g>
      </g>
    </g>
    <g id="Group_1997" data-name="Group 1997" transform="translate(454.954 572.045)">
      <path id="Path_5656" data-name="Path 5656" d="M398.423,130.506a5.371,5.371,0,0,0-6.612-1.784c-4.408,1.679-2.414,12.489,4.2,13.853a5.278,5.278,0,0,0,4.3-1.154C400.312,141.525,398.737,133.549,398.423,130.506Z" transform="translate(-389.456 -128.262)" fill="#e8aba2"/>
      <g id="Group_1996" data-name="Group 1996" transform="translate(3.299 4.112)">
        <g id="Group_1995" data-name="Group 1995">
          <path id="Path_5657" data-name="Path 5657" d="M392.6,132.306s3.673-1.259,6.4,4.2" transform="translate(-392.6 -132.18)" fill="none" stroke="#161311" stroke-linecap="round" stroke-linejoin="round" stroke-miterlimit="10" stroke-width="1.098"/>
        </g>
      </g>
    </g>
    <path id="Path_5658" data-name="Path 5658" d="M449.554,122.658c0,6.927-.735,21.409-5.247,30.015-4.2,8.081-11.124,12.384-20.255,12.7-7.241.21-17.736-6.612-21.409-13.538-5.457-10.495-5.142-28.965-5.142-28.965s0-24.768,25.712-24.768C450.289,98.1,449.554,122.658,449.554,122.658Z" transform="translate(65.895 442.291)" fill="#e8aba2"/>
    <g id="Group_1998" data-name="Group 1998" transform="translate(469.588 563.154)">
      <path id="Path_5659" data-name="Path 5659" d="M413.888,129.594a1.994,1.994,0,1,1-1.994-1.994A1.993,1.993,0,0,1,413.888,129.594Z" transform="translate(-403.078 -119.404)" fill="#1a1a1a"/>
      <path id="Path_5660" data-name="Path 5660" d="M433.488,129.594a1.994,1.994,0,1,1-1.994-1.994A1.993,1.993,0,0,1,433.488,129.594Z" transform="translate(-402.109 -119.404)" fill="#1a1a1a"/>
      <path id="Path_5661" data-name="Path 5661" d="M417.568,121.9,403.4,125.573s.63-3.988,6.4-5.352C415.679,118.646,417.568,121.9,417.568,121.9Z" transform="translate(-403.4 -119.79)" fill="#1a1a1a"/>
      <path id="Path_5662" data-name="Path 5662" d="M425.5,121.9l14.168,3.673s-.63-3.988-6.4-5.352C427.389,118.646,425.5,121.9,425.5,121.9Z" transform="translate(-402.307 -119.79)" fill="#1a1a1a"/>
      <path id="Path_5663" data-name="Path 5663" d="M419.8,134.3v5.037h3.673" transform="translate(-402.589 -119.072)" fill="none" stroke="#161311" stroke-linecap="round" stroke-linejoin="round" stroke-miterlimit="10" stroke-width="1.098"/>
      <path id="Path_5664" data-name="Path 5664" d="M433.619,143.2H412s.63,5.667,10.285,5.667C431.1,148.867,433.619,143.2,433.619,143.2Z" transform="translate(-402.975 -118.632)" fill="#fff"/>
    </g>
    <path id="Path_5665" data-name="Path 5665" d="M398.119,131.612s9.655-14.8,2.1-25.712c0,0-4.723.1-4.618,18.89Z" transform="translate(65.802 442.677)" fill="#2f1118"/>
    <path id="Path_5666" data-name="Path 5666" d="M446.935,131.612s-9.655-14.8-2.1-25.712c0,0,4.723.1,4.618,18.89Z" transform="translate(68.094 442.677)" fill="#2f1118"/>
    <path id="Path_5667" data-name="Path 5667" d="M397.6,106.086s12.489,14.063,38.1,11.334c22.878-2.414,24.872-18.576,19.415-24.872-7.766-9.025-24.977-5.667-34.213,4.408Z" transform="translate(65.901 441.757)" fill="#2f1118"/>
    <path id="Path_5668" data-name="Path 5668" d="M407.8,179.4l15.217,19.52L437.6,180.449Z" transform="translate(66.405 446.313)" fill="#e8aba2"/>
    <path id="Path_5669" data-name="Path 5669" d="M408.225,176.8l-9.025,4.618,10.18,20.36,10.075-7.661Z" transform="translate(65.98 446.184)" fill="#4460f1"/>
    <path id="Path_5670" data-name="Path 5670" d="M436.8,176.8l10.18,4.723-10.7,20.255L426.2,193.8Z" transform="translate(67.315 446.184)" fill="#4460f1"/>
  </g>
</svg>
