<svg xmlns="http://www.w3.org/2000/svg" width="804.793" height="607.2" viewBox="0 0 804.793 607.2">
  <g id="Object" transform="translate(316.2)">
    <g id="Group_3726" data-name="Group 3726" transform="translate(11.182 263.626)">
      <rect id="Rectangle_130" data-name="Rectangle 130" width="53.13" height="211.407" transform="translate(1.417 59.303)" fill="#607efc"/>
      <rect id="Rectangle_131" data-name="Rectangle 131" width="35.774" height="88.854" transform="translate(10.069 44.123)" fill="#607efc"/>
      <rect id="Rectangle_132" data-name="Rectangle 132" width="19.835" height="49.284" transform="translate(18.064 34.509)" fill="#607efc"/>
      <path id="Path_7432" data-name="Path 7432" d="M386.21,606.5H372.7V572.9h13.51Z" transform="translate(-351.499 -546.639)" fill="#607efc"/>
      <g id="Group_3725" data-name="Group 3725" transform="translate(25.604)">
        <path id="Path_7433" data-name="Path 7433" d="M382.867,577.6H381.4V544h1.467Z" transform="translate(-381.4 -532.362)" fill="#607efc"/>
        <path id="Path_7434" data-name="Path 7434" d="M389.267,554.6H387.8V521h1.467Z" transform="translate(-384.562 -521)" fill="#607efc"/>
      </g>
      <rect id="Rectangle_133" data-name="Rectangle 133" width="55.964" height="2.226" transform="translate(0 58.747)" fill="#607efc"/>
      <rect id="Rectangle_134" data-name="Rectangle 134" width="38.355" height="2.176" transform="translate(8.754 43.061)" fill="#607efc"/>
      <rect id="Rectangle_135" data-name="Rectangle 135" width="22.112" height="1.67" transform="translate(16.597 33.598)" fill="#607efc"/>
      <rect id="Rectangle_136" data-name="Rectangle 136" width="1.67" height="9.31" transform="translate(13.358 47.716)" fill="#607efc" opacity="0.29"/>
      <rect id="Rectangle_137" data-name="Rectangle 137" width="1.67" height="9.31" transform="translate(17.963 47.716)" fill="#607efc" opacity="0.29"/>
      <rect id="Rectangle_138" data-name="Rectangle 138" width="1.67" height="9.31" transform="translate(22.568 47.716)" fill="#607efc" opacity="0.29"/>
      <rect id="Rectangle_139" data-name="Rectangle 139" width="1.67" height="9.31" transform="translate(27.172 47.716)" fill="#607efc" opacity="0.29"/>
      <rect id="Rectangle_140" data-name="Rectangle 140" width="1.67" height="9.31" transform="translate(31.777 47.716)" fill="#607efc" opacity="0.29"/>
      <rect id="Rectangle_141" data-name="Rectangle 141" width="1.67" height="9.31" transform="translate(36.381 47.716)" fill="#607efc" opacity="0.29"/>
      <rect id="Rectangle_142" data-name="Rectangle 142" width="1.67" height="9.31" transform="translate(40.986 47.716)" fill="#607efc" opacity="0.29"/>
      <rect id="Rectangle_143" data-name="Rectangle 143" width="3.997" height="11.031" transform="translate(6.072 67.703)" fill="#607efc"/>
      <rect id="Rectangle_144" data-name="Rectangle 144" width="3.997" height="11.031" transform="translate(14.016 67.703)" fill="#607efc" opacity="0.29"/>
      <rect id="Rectangle_145" data-name="Rectangle 145" width="3.997" height="11.031" transform="translate(21.96 67.703)" fill="#607efc"/>
      <rect id="Rectangle_146" data-name="Rectangle 146" width="3.997" height="11.031" transform="translate(29.905 67.703)" fill="#607efc"/>
      <rect id="Rectangle_147" data-name="Rectangle 147" width="3.997" height="11.031" transform="translate(37.899 67.703)" fill="#607efc"/>
      <rect id="Rectangle_148" data-name="Rectangle 148" width="3.997" height="11.031" transform="translate(45.844 67.703)" fill="#607efc"/>
      <rect id="Rectangle_149" data-name="Rectangle 149" width="3.997" height="11.031" transform="translate(6.072 84.957)" fill="#607efc"/>
      <rect id="Rectangle_150" data-name="Rectangle 150" width="3.997" height="11.031" transform="translate(14.016 84.957)" fill="#607efc"/>
      <rect id="Rectangle_151" data-name="Rectangle 151" width="3.997" height="11.031" transform="translate(21.96 84.957)" fill="#607efc"/>
      <rect id="Rectangle_152" data-name="Rectangle 152" width="3.997" height="11.031" transform="translate(29.905 84.957)" fill="#607efc" opacity="0.29"/>
      <rect id="Rectangle_153" data-name="Rectangle 153" width="3.997" height="11.031" transform="translate(37.899 84.957)" fill="#607efc"/>
      <rect id="Rectangle_154" data-name="Rectangle 154" width="3.997" height="11.031" transform="translate(45.844 84.957)" fill="#607efc"/>
      <rect id="Rectangle_155" data-name="Rectangle 155" width="3.997" height="11.031" transform="translate(6.072 102.161)" fill="#607efc"/>
      <rect id="Rectangle_156" data-name="Rectangle 156" width="3.997" height="11.031" transform="translate(14.016 102.161)" fill="#607efc"/>
      <rect id="Rectangle_157" data-name="Rectangle 157" width="3.997" height="11.031" transform="translate(21.96 102.161)" fill="#607efc"/>
      <rect id="Rectangle_158" data-name="Rectangle 158" width="3.997" height="11.031" transform="translate(29.905 102.161)" fill="#607efc"/>
      <rect id="Rectangle_159" data-name="Rectangle 159" width="3.997" height="11.031" transform="translate(37.899 102.161)" fill="#607efc" opacity="0.29"/>
      <rect id="Rectangle_160" data-name="Rectangle 160" width="3.997" height="11.031" transform="translate(45.844 102.161)" fill="#607efc" opacity="0.29"/>
      <rect id="Rectangle_161" data-name="Rectangle 161" width="3.997" height="11.031" transform="translate(6.072 119.365)" fill="#607efc" opacity="0.29"/>
      <rect id="Rectangle_162" data-name="Rectangle 162" width="3.997" height="11.031" transform="translate(14.016 119.365)" fill="#607efc"/>
      <rect id="Rectangle_163" data-name="Rectangle 163" width="3.997" height="11.031" transform="translate(21.96 119.365)" fill="#607efc"/>
      <rect id="Rectangle_164" data-name="Rectangle 164" width="3.997" height="11.031" transform="translate(29.905 119.365)" fill="#607efc"/>
      <rect id="Rectangle_165" data-name="Rectangle 165" width="3.997" height="11.031" transform="translate(37.899 119.365)" fill="#607efc"/>
      <rect id="Rectangle_166" data-name="Rectangle 166" width="3.997" height="11.031" transform="translate(45.844 119.365)" fill="#607efc"/>
      <rect id="Rectangle_167" data-name="Rectangle 167" width="3.997" height="11.031" transform="translate(6.072 136.569)" fill="#607efc"/>
      <rect id="Rectangle_168" data-name="Rectangle 168" width="3.997" height="11.031" transform="translate(14.016 136.569)" fill="#607efc" opacity="0.29"/>
      <rect id="Rectangle_169" data-name="Rectangle 169" width="3.997" height="11.031" transform="translate(21.96 136.569)" fill="#607efc"/>
      <rect id="Rectangle_170" data-name="Rectangle 170" width="3.997" height="11.031" transform="translate(29.905 136.569)" fill="#607efc" opacity="0.29"/>
      <rect id="Rectangle_171" data-name="Rectangle 171" width="3.997" height="11.031" transform="translate(37.899 136.569)" fill="#607efc"/>
      <rect id="Rectangle_172" data-name="Rectangle 172" width="3.997" height="11.031" transform="translate(45.844 136.569)" fill="#607efc"/>
      <rect id="Rectangle_173" data-name="Rectangle 173" width="3.997" height="11.031" transform="translate(6.072 153.824)" fill="#607efc"/>
      <rect id="Rectangle_174" data-name="Rectangle 174" width="3.997" height="11.031" transform="translate(14.016 153.824)" fill="#607efc"/>
      <rect id="Rectangle_175" data-name="Rectangle 175" width="3.997" height="11.031" transform="translate(21.96 153.824)" fill="#607efc"/>
      <rect id="Rectangle_176" data-name="Rectangle 176" width="3.997" height="11.031" transform="translate(29.905 153.824)" fill="#607efc"/>
      <rect id="Rectangle_177" data-name="Rectangle 177" width="3.997" height="11.031" transform="translate(37.899 153.824)" fill="#607efc"/>
      <rect id="Rectangle_178" data-name="Rectangle 178" width="3.997" height="11.031" transform="translate(45.844 153.824)" fill="#607efc" opacity="0.29"/>
      <rect id="Rectangle_179" data-name="Rectangle 179" width="3.997" height="11.031" transform="translate(6.072 171.028)" fill="#607efc"/>
      <rect id="Rectangle_180" data-name="Rectangle 180" width="3.997" height="11.031" transform="translate(14.016 171.028)" fill="#607efc" opacity="0.29"/>
      <rect id="Rectangle_181" data-name="Rectangle 181" width="3.997" height="11.031" transform="translate(21.96 171.028)" fill="#607efc" opacity="0.29"/>
      <rect id="Rectangle_182" data-name="Rectangle 182" width="3.997" height="11.031" transform="translate(29.905 171.028)" fill="#607efc"/>
      <rect id="Rectangle_183" data-name="Rectangle 183" width="3.997" height="11.031" transform="translate(37.899 171.028)" fill="#607efc"/>
      <rect id="Rectangle_184" data-name="Rectangle 184" width="3.997" height="11.031" transform="translate(45.844 171.028)" fill="#607efc"/>
      <rect id="Rectangle_185" data-name="Rectangle 185" width="3.997" height="11.031" transform="translate(6.072 188.232)" fill="#607efc"/>
      <rect id="Rectangle_186" data-name="Rectangle 186" width="3.997" height="11.031" transform="translate(14.016 188.232)" fill="#607efc"/>
      <rect id="Rectangle_187" data-name="Rectangle 187" width="3.997" height="11.031" transform="translate(21.96 188.232)" fill="#607efc"/>
      <rect id="Rectangle_188" data-name="Rectangle 188" width="3.997" height="11.031" transform="translate(29.905 188.232)" fill="#607efc"/>
      <rect id="Rectangle_189" data-name="Rectangle 189" width="3.997" height="11.031" transform="translate(37.899 188.232)" fill="#607efc" opacity="0.29"/>
      <rect id="Rectangle_190" data-name="Rectangle 190" width="3.997" height="11.031" transform="translate(45.844 188.232)" fill="#607efc"/>
      <rect id="Rectangle_191" data-name="Rectangle 191" width="3.997" height="11.031" transform="translate(6.072 205.436)" fill="#607efc"/>
      <rect id="Rectangle_192" data-name="Rectangle 192" width="3.997" height="11.031" transform="translate(14.016 205.436)" fill="#607efc" opacity="0.29"/>
      <rect id="Rectangle_193" data-name="Rectangle 193" width="3.997" height="11.031" transform="translate(21.96 205.436)" fill="#607efc"/>
      <rect id="Rectangle_194" data-name="Rectangle 194" width="3.997" height="11.031" transform="translate(29.905 205.436)" fill="#607efc"/>
      <rect id="Rectangle_195" data-name="Rectangle 195" width="3.997" height="11.031" transform="translate(37.899 205.436)" fill="#607efc"/>
      <rect id="Rectangle_196" data-name="Rectangle 196" width="3.997" height="11.031" transform="translate(45.844 205.436)" fill="#607efc"/>
      <rect id="Rectangle_197" data-name="Rectangle 197" width="3.997" height="11.031" transform="translate(6.072 222.691)" fill="#607efc"/>
      <rect id="Rectangle_198" data-name="Rectangle 198" width="3.997" height="11.031" transform="translate(14.016 222.691)" fill="#607efc"/>
      <rect id="Rectangle_199" data-name="Rectangle 199" width="3.997" height="11.031" transform="translate(21.96 222.691)" fill="#607efc"/>
      <rect id="Rectangle_200" data-name="Rectangle 200" width="3.997" height="11.031" transform="translate(29.905 222.691)" fill="#607efc" opacity="0.29"/>
      <rect id="Rectangle_201" data-name="Rectangle 201" width="3.997" height="11.031" transform="translate(37.899 222.691)" fill="#607efc"/>
      <rect id="Rectangle_202" data-name="Rectangle 202" width="3.997" height="11.031" transform="translate(45.844 222.691)" fill="#607efc" opacity="0.29"/>
      <rect id="Rectangle_203" data-name="Rectangle 203" width="3.997" height="11.031" transform="translate(6.072 239.895)" fill="#607efc" opacity="0.29"/>
      <rect id="Rectangle_204" data-name="Rectangle 204" width="3.997" height="11.031" transform="translate(14.016 239.895)" fill="#607efc"/>
      <rect id="Rectangle_205" data-name="Rectangle 205" width="3.997" height="11.031" transform="translate(21.96 239.895)" fill="#607efc" opacity="0.29"/>
      <rect id="Rectangle_206" data-name="Rectangle 206" width="3.997" height="11.031" transform="translate(29.905 239.895)" fill="#607efc"/>
      <rect id="Rectangle_207" data-name="Rectangle 207" width="3.997" height="11.031" transform="translate(37.899 239.895)" fill="#607efc"/>
      <rect id="Rectangle_208" data-name="Rectangle 208" width="3.997" height="11.031" transform="translate(45.844 239.895)" fill="#607efc"/>
    </g>
    <g id="Group_3727" data-name="Group 3727" transform="translate(-144.109 290.697)">
      <rect id="Rectangle_209" data-name="Rectangle 209" width="85.362" height="178.112" transform="translate(2.429 40.278)" fill="#607efc"/>
      <rect id="Rectangle_210" data-name="Rectangle 210" width="90.22" height="5.009" transform="translate(0 37.191)" fill="#607efc"/>
      <rect id="Rectangle_211" data-name="Rectangle 211" width="79.644" height="23.934" transform="translate(5.313 30.765)" fill="#607efc"/>
      <rect id="Rectangle_212" data-name="Rectangle 212" width="31.524" height="26.16" transform="translate(11.385 20.948)" fill="#607efc"/>
      <path id="Path_7435" data-name="Path 7435" d="M64.667,617.063H46.4V603.3H59.505Z" transform="translate(-35.015 -588.727)" fill="#607efc"/>
      <rect id="Rectangle_213" data-name="Rectangle 213" width="1.771" height="30.664" transform="translate(18.773 3.137)" fill="#607efc"/>
      <circle id="Ellipse_20" data-name="Ellipse 20" cx="1.569" cy="1.569" r="1.569" transform="translate(18.064)" fill="#607efc"/>
    </g>
    <path id="Path_7436" data-name="Path 7436" d="M695.929,564.449V476.911H681.306V453.433h-5.262V419.076H647.2v-25.3h-2.581v25.3H639V387.4h-2.581v31.676H618.157v57.836h-9.412v87.538H600.7V723.89H701.647V564.449Z" transform="translate(-452.949 -191.376)" fill="#607efc"/>
    <path id="Path_7437" data-name="Path 7437" d="M1043.687,969.424H994.2l19.279-99.024h30.208Z" transform="translate(-647.338 -429.978)" fill="#3354dd"/>
    <path id="Path_7438" data-name="Path 7438" d="M930.785,607.57V563.7H914.9V547h-8.5V532.986h-2.985V508.9h-.759v24.086h-2.985V547h-8.5v16.7H875.429v43.87H872.14v79.7H847.7v90.776h86.222V607.57Z" transform="translate(-574.966 -251.397)" fill="#3354dd"/>
    <path id="Path_7439" data-name="Path 7439" d="M1117.161,803.5H1040.3v1.417h3.491V934.858h69.879V804.917h3.491Z" transform="translate(-670.111 -396.929)" fill="#3354dd"/>
    <rect id="Rectangle_214" data-name="Rectangle 214" width="68.158" height="108.233" transform="translate(28.487 438.955)" fill="#3354dd"/>
    <rect id="Rectangle_215" data-name="Rectangle 215" width="117.19" height="52.776" transform="translate(-98.974 494.413)" fill="#4460f1"/>
    <rect id="Rectangle_216" data-name="Rectangle 216" width="25.705" height="129.637" transform="translate(-36.18 376.464)" fill="#3354dd"/>
    <rect id="Rectangle_217" data-name="Rectangle 217" width="1.316" height="70.486" transform="translate(-30.512 341.904)" fill="#95a9a7"/>
    <rect id="Rectangle_218" data-name="Rectangle 218" width="1.316" height="70.486" transform="translate(-26.161 347.268)" fill="#95a9a7"/>
    <rect id="Rectangle_219" data-name="Rectangle 219" width="15.737" height="17.356" transform="translate(-34.206 368.469)" fill="#4460f1"/>
    <rect id="Rectangle_220" data-name="Rectangle 220" width="44.781" height="88.854" transform="translate(13.611 458.335)" fill="#4460f1"/>
    <rect id="Rectangle_221" data-name="Rectangle 221" width="84.047" height="182.919" transform="translate(107.676 364.269)" fill="#3354dd"/>
    <rect id="Rectangle_222" data-name="Rectangle 222" width="67.551" height="30.461" transform="translate(115.924 357.995)" fill="#4460f1"/>
    <rect id="Rectangle_223" data-name="Rectangle 223" width="97.051" height="2.125" transform="translate(101.149 368.115)" fill="#3354dd"/>
    <rect id="Rectangle_224" data-name="Rectangle 224" width="39.62" height="92.396" transform="translate(92.446 454.843)" fill="#4460f1"/>
    <rect id="Rectangle_225" data-name="Rectangle 225" width="45.439" height="95.887" transform="translate(-191.218 451.301)" fill="#3354dd"/>
    <g id="Group_3728" data-name="Group 3728" transform="translate(-181.806 407.887)">
      <rect id="Rectangle_226" data-name="Rectangle 226" width="90.523" height="121.946" transform="translate(5.313 17.356)" fill="#3354dd"/>
      <rect id="Rectangle_227" data-name="Rectangle 227" width="98.164" height="4.655" transform="translate(0 12.701)" fill="#3354dd"/>
      <rect id="Rectangle_228" data-name="Rectangle 228" width="39.772" height="24.743" transform="translate(9.31)" fill="#3354dd"/>
      <rect id="Rectangle_229" data-name="Rectangle 229" width="6.679" height="15.028" transform="translate(62.086)" fill="#3354dd"/>
      <rect id="Rectangle_230" data-name="Rectangle 230" width="7.337" height="15.028" transform="translate(75.495)" fill="#3354dd"/>
    </g>
    <rect id="Rectangle_231" data-name="Rectangle 231" width="40.986" height="54.395" transform="translate(411.529 472.25)" fill="#95a9a7"/>
    <path id="Path_7440" data-name="Path 7440" d="M475.994,865.134v-.911h-2.732V839.075h2.732v-2.024h-2.732V811.9h2.732v-2.024h-2.732V784.73h2.732v-1.973h-2.732V757.609h2.732v-2.024h-2.732V730.436h2.732v-2.024h-2.732V702.4h4.655V700.38h2.328v-5.515H436.323v-6.173h1.417V686.92H413.806v1.771h1.417v6.173H404.344v5.515h2.378V702.4h4.6v26.008h-2.682v2.024h2.682v25.148h-2.682v2.024h2.682v25.148h-2.682v1.973h2.682v25.148h-2.682V811.9h2.682v25.148h-2.682v2.024h2.682v25.148h-2.682v2.024h2.682V886.79H396.349V807.4H335.983v57.735h-9.816V685.2h-7.236v4.655l-13.409,3.238v-2.985h-7.236v4.756l-13.358,3.289v-3.441h-7.286v5.212l-13.358,3.289v-2.884h-7.236v4.655l-13.409,3.238v-2.429H236.4v176.7H226.181V788.272h-37.8v57.937H149.674V796.824h-4.756V780.581h2.834v-1.619H135.2v-5.111h-1.316v5.111h-4.048V752.8h-1.012v26.16h-5.212v1.619H126.7v16.243H101.149v37.7h-24.9l-13,47.969H37.19V725.781H2.631v-5.617H4.6v-1.923h-26.16v1.923h2.075v122H-35.775V801.631h5.768v-3.694H-70.942v-24.49h-7.843v-5.06H-96.191v5.06H-110.41v87.487h-46.552v-64.92h-39.215v51.258h-34.054v32.789h-24.49V838.822H-287v35.167h-29.2v59.759H473.261" transform="translate(0 -338.489)" fill="#3859e5"/>
    <line id="Line_30" data-name="Line 30" y2="4.655" transform="translate(488.593 433.743)" fill="#3859e5"/>
    <g id="Group_3730" data-name="Group 3730" transform="translate(-116.178 229.623)">
      <g id="Group_3729" data-name="Group 3729" transform="translate(9.867 231.9)" opacity="0.52">
        <rect id="Rectangle_232" data-name="Rectangle 232" width="2.985" height="2.985" fill="#fff"/>
        <rect id="Rectangle_233" data-name="Rectangle 233" width="2.985" height="2.985" transform="translate(5.971)" fill="#fff"/>
        <rect id="Rectangle_234" data-name="Rectangle 234" width="2.985" height="2.985" transform="translate(0 7.033)" fill="#fff"/>
        <rect id="Rectangle_235" data-name="Rectangle 235" width="2.985" height="2.985" transform="translate(5.971 7.033)" fill="#fff"/>
        <rect id="Rectangle_236" data-name="Rectangle 236" width="2.985" height="2.985" transform="translate(0 13.814)" fill="#fff"/>
        <rect id="Rectangle_237" data-name="Rectangle 237" width="2.985" height="2.985" transform="translate(12.65)" fill="#fff"/>
      </g>
      <rect id="Rectangle_238" data-name="Rectangle 238" width="2.024" height="11.284" transform="translate(228.408 142.237)" fill="#fff" opacity="0.5"/>
      <rect id="Rectangle_239" data-name="Rectangle 239" width="2.024" height="11.284" transform="translate(235.442 142.237)" fill="#fff" opacity="0.5"/>
      <rect id="Rectangle_240" data-name="Rectangle 240" width="2.024" height="11.284" transform="translate(242.425 142.237)" fill="#fff" opacity="0.5"/>
      <rect id="Rectangle_241" data-name="Rectangle 241" width="2.024" height="11.284" transform="translate(249.458 142.237)" fill="#fff" opacity="0.5"/>
      <rect id="Rectangle_242" data-name="Rectangle 242" width="2.024" height="11.284" transform="translate(256.491 142.237)" fill="#fff" opacity="0.5"/>
      <rect id="Rectangle_243" data-name="Rectangle 243" width="2.024" height="11.284" transform="translate(263.525 142.237)" fill="#fff" opacity="0.5"/>
      <rect id="Rectangle_244" data-name="Rectangle 244" width="2.024" height="11.284" transform="translate(270.508 142.237)" fill="#fff" opacity="0.5"/>
      <rect id="Rectangle_245" data-name="Rectangle 245" width="2.024" height="11.284" transform="translate(277.541 142.237)" fill="#fff" opacity="0.5"/>
      <rect id="Rectangle_246" data-name="Rectangle 246" width="2.024" height="11.284" transform="translate(284.574 142.237)" fill="#fff" opacity="0.5"/>
      <rect id="Rectangle_247" data-name="Rectangle 247" width="2.024" height="11.284" transform="translate(291.557 142.237)" fill="#fff" opacity="0.5"/>
      <rect id="Rectangle_248" data-name="Rectangle 248" width="2.024" height="11.284" transform="translate(298.591 142.237)" fill="#fff" opacity="0.5"/>
      <rect id="Rectangle_249" data-name="Rectangle 249" width="2.024" height="11.284" transform="translate(228.408 157.923)" fill="#fff" opacity="0.5"/>
      <rect id="Rectangle_250" data-name="Rectangle 250" width="2.024" height="11.284" transform="translate(235.442 157.923)" fill="#fff" opacity="0.5"/>
      <rect id="Rectangle_251" data-name="Rectangle 251" width="2.024" height="11.284" transform="translate(242.425 157.923)" fill="#fff" opacity="0.5"/>
      <rect id="Rectangle_252" data-name="Rectangle 252" width="2.024" height="11.284" transform="translate(249.458 157.923)" fill="#fff" opacity="0.5"/>
      <rect id="Rectangle_253" data-name="Rectangle 253" width="2.024" height="11.284" transform="translate(256.491 157.923)" fill="#fff" opacity="0.5"/>
      <rect id="Rectangle_254" data-name="Rectangle 254" width="2.024" height="11.284" transform="translate(263.525 157.923)" fill="#fff" opacity="0.5"/>
      <rect id="Rectangle_255" data-name="Rectangle 255" width="2.024" height="11.284" transform="translate(270.508 157.923)" fill="#fff" opacity="0.5"/>
      <rect id="Rectangle_256" data-name="Rectangle 256" width="2.024" height="11.284" transform="translate(277.541 157.923)" fill="#fff" opacity="0.5"/>
      <rect id="Rectangle_257" data-name="Rectangle 257" width="2.024" height="11.284" transform="translate(284.574 157.923)" fill="#fff" opacity="0.5"/>
      <rect id="Rectangle_258" data-name="Rectangle 258" width="2.024" height="11.284" transform="translate(291.557 157.923)" fill="#fff" opacity="0.5"/>
      <rect id="Rectangle_259" data-name="Rectangle 259" width="2.024" height="11.284" transform="translate(298.591 157.923)" fill="#fff" opacity="0.5"/>
      <rect id="Rectangle_260" data-name="Rectangle 260" width="2.024" height="11.284" transform="translate(228.408 173.609)" fill="#fff" opacity="0.5"/>
      <rect id="Rectangle_261" data-name="Rectangle 261" width="2.024" height="11.284" transform="translate(235.442 173.609)" fill="#fff" opacity="0.5"/>
      <rect id="Rectangle_262" data-name="Rectangle 262" width="2.024" height="11.284" transform="translate(242.425 173.609)" fill="#fff" opacity="0.5"/>
      <rect id="Rectangle_263" data-name="Rectangle 263" width="2.024" height="11.284" transform="translate(249.458 173.609)" fill="#fff" opacity="0.5"/>
      <rect id="Rectangle_264" data-name="Rectangle 264" width="2.024" height="11.284" transform="translate(256.491 173.609)" fill="#fff" opacity="0.5"/>
      <rect id="Rectangle_265" data-name="Rectangle 265" width="2.024" height="11.284" transform="translate(263.525 173.609)" fill="#fff" opacity="0.5"/>
      <rect id="Rectangle_266" data-name="Rectangle 266" width="2.024" height="11.284" transform="translate(270.508 173.609)" fill="#fff" opacity="0.5"/>
      <rect id="Rectangle_267" data-name="Rectangle 267" width="2.024" height="11.284" transform="translate(277.541 173.609)" fill="#fff" opacity="0.5"/>
      <rect id="Rectangle_268" data-name="Rectangle 268" width="2.024" height="11.284" transform="translate(284.574 173.609)" fill="#fff" opacity="0.5"/>
      <rect id="Rectangle_269" data-name="Rectangle 269" width="2.024" height="11.284" transform="translate(291.557 173.609)" fill="#fff" opacity="0.5"/>
      <rect id="Rectangle_270" data-name="Rectangle 270" width="2.024" height="11.284" transform="translate(298.591 173.609)" fill="#fff" opacity="0.5"/>
      <rect id="Rectangle_271" data-name="Rectangle 271" width="2.024" height="11.284" transform="translate(249.458 189.295)" fill="#fff" opacity="0.5"/>
      <rect id="Rectangle_272" data-name="Rectangle 272" width="2.024" height="11.284" transform="translate(256.491 189.295)" fill="#fff" opacity="0.5"/>
      <rect id="Rectangle_273" data-name="Rectangle 273" width="2.024" height="11.284" transform="translate(263.525 189.295)" fill="#fff" opacity="0.5"/>
      <rect id="Rectangle_274" data-name="Rectangle 274" width="2.024" height="11.284" transform="translate(270.508 189.295)" fill="#fff" opacity="0.5"/>
      <rect id="Rectangle_275" data-name="Rectangle 275" width="2.024" height="11.284" transform="translate(277.541 189.295)" fill="#fff" opacity="0.5"/>
      <rect id="Rectangle_276" data-name="Rectangle 276" width="2.024" height="11.284" transform="translate(284.574 189.295)" fill="#fff" opacity="0.5"/>
      <rect id="Rectangle_277" data-name="Rectangle 277" width="2.024" height="11.284" transform="translate(291.557 189.295)" fill="#fff" opacity="0.5"/>
      <rect id="Rectangle_278" data-name="Rectangle 278" width="2.024" height="11.284" transform="translate(298.591 189.295)" fill="#fff" opacity="0.5"/>
      <rect id="Rectangle_279" data-name="Rectangle 279" width="2.024" height="11.284" transform="translate(256.491 205.891)" fill="#fff" opacity="0.5"/>
      <rect id="Rectangle_280" data-name="Rectangle 280" width="2.024" height="11.284" transform="translate(263.525 205.891)" fill="#fff" opacity="0.5"/>
      <rect id="Rectangle_281" data-name="Rectangle 281" width="2.024" height="11.284" transform="translate(270.508 205.891)" fill="#fff" opacity="0.5"/>
      <rect id="Rectangle_282" data-name="Rectangle 282" width="2.024" height="11.284" transform="translate(277.541 205.891)" fill="#fff" opacity="0.5"/>
      <rect id="Rectangle_283" data-name="Rectangle 283" width="2.024" height="11.284" transform="translate(284.574 205.891)" fill="#fff" opacity="0.5"/>
      <rect id="Rectangle_284" data-name="Rectangle 284" width="2.024" height="11.284" transform="translate(291.557 205.891)" fill="#fff" opacity="0.5"/>
      <rect id="Rectangle_285" data-name="Rectangle 285" width="2.024" height="11.284" transform="translate(298.591 205.891)" fill="#fff" opacity="0.5"/>
      <rect id="Rectangle_286" data-name="Rectangle 286" width="4.807" height="12.195" transform="translate(364.118 170.218)" fill="#fff" opacity="0.33"/>
      <rect id="Rectangle_287" data-name="Rectangle 287" width="4.807" height="12.195" transform="translate(364.118 193.545)" fill="#fff" opacity="0.33"/>
      <rect id="Rectangle_288" data-name="Rectangle 288" width="4.807" height="12.195" transform="translate(364.118 216.872)" fill="#fff" opacity="0.33"/>
      <rect id="Rectangle_289" data-name="Rectangle 289" width="4.807" height="12.195" transform="translate(364.118 240.249)" fill="#fff" opacity="0.33"/>
      <rect id="Rectangle_290" data-name="Rectangle 290" width="4.807" height="12.195" transform="translate(364.118 262.26)" fill="#fff" opacity="0.33"/>
      <rect id="Rectangle_291" data-name="Rectangle 291" width="4.807" height="12.195" transform="translate(364.118 285.586)" fill="#fff" opacity="0.33"/>
      <rect id="Rectangle_292" data-name="Rectangle 292" width="4.807" height="12.195" transform="translate(384.712 170.218)" fill="#fff" opacity="0.33"/>
      <rect id="Rectangle_293" data-name="Rectangle 293" width="4.807" height="12.195" transform="translate(384.712 193.545)" fill="#fff" opacity="0.33"/>
      <rect id="Rectangle_294" data-name="Rectangle 294" width="4.807" height="12.195" transform="translate(384.712 216.872)" fill="#fff" opacity="0.33"/>
      <rect id="Rectangle_295" data-name="Rectangle 295" width="4.807" height="12.195" transform="translate(384.712 240.249)" fill="#fff" opacity="0.33"/>
      <rect id="Rectangle_296" data-name="Rectangle 296" width="4.807" height="12.195" transform="translate(384.712 262.26)" fill="#fff" opacity="0.33"/>
      <rect id="Rectangle_297" data-name="Rectangle 297" width="4.807" height="12.195" transform="translate(384.712 285.586)" fill="#fff" opacity="0.33"/>
      <rect id="Rectangle_298" data-name="Rectangle 298" width="4.807" height="12.195" transform="translate(405.357 170.218)" fill="#fff" opacity="0.33"/>
      <rect id="Rectangle_299" data-name="Rectangle 299" width="4.807" height="12.195" transform="translate(405.357 193.545)" fill="#fff" opacity="0.33"/>
      <rect id="Rectangle_300" data-name="Rectangle 300" width="4.807" height="12.195" transform="translate(405.357 216.872)" fill="#fff" opacity="0.33"/>
      <rect id="Rectangle_301" data-name="Rectangle 301" width="4.807" height="12.195" transform="translate(405.357 240.249)" fill="#fff" opacity="0.33"/>
      <rect id="Rectangle_302" data-name="Rectangle 302" width="4.807" height="12.195" transform="translate(405.357 262.26)" fill="#fff" opacity="0.33"/>
      <rect id="Rectangle_303" data-name="Rectangle 303" width="4.807" height="12.195" transform="translate(405.357 285.586)" fill="#fff" opacity="0.33"/>
      <rect id="Rectangle_304" data-name="Rectangle 304" width="4.807" height="12.195" transform="translate(426.001 170.218)" fill="#fff" opacity="0.33"/>
      <rect id="Rectangle_305" data-name="Rectangle 305" width="4.807" height="12.195" transform="translate(426.001 193.545)" fill="#fff" opacity="0.33"/>
      <rect id="Rectangle_306" data-name="Rectangle 306" width="4.807" height="12.195" transform="translate(426.001 216.872)" fill="#fff" opacity="0.33"/>
      <rect id="Rectangle_307" data-name="Rectangle 307" width="4.807" height="12.195" transform="translate(426.001 240.249)" fill="#fff" opacity="0.33"/>
      <rect id="Rectangle_308" data-name="Rectangle 308" width="4.807" height="12.195" transform="translate(426.001 262.26)" fill="#fff" opacity="0.33"/>
      <rect id="Rectangle_309" data-name="Rectangle 309" width="4.807" height="12.195" transform="translate(426.001 285.586)" fill="#fff" opacity="0.33"/>
      <rect id="Rectangle_310" data-name="Rectangle 310" width="3.997" height="10.677" transform="translate(286.598)" fill="#fff" opacity="0.5"/>
      <rect id="Rectangle_311" data-name="Rectangle 311" width="3.997" height="10.677" transform="translate(296.465)" fill="#fff" opacity="0.5"/>
      <rect id="Rectangle_312" data-name="Rectangle 312" width="3.997" height="10.677" transform="translate(306.332)" fill="#fff" opacity="0.5"/>
      <rect id="Rectangle_313" data-name="Rectangle 313" width="3.997" height="10.677" transform="translate(316.25)" fill="#fff" opacity="0.5"/>
      <rect id="Rectangle_314" data-name="Rectangle 314" width="3.997" height="10.677" transform="translate(286.598 17.811)" fill="#fff" opacity="0.5"/>
      <rect id="Rectangle_315" data-name="Rectangle 315" width="3.997" height="10.677" transform="translate(296.465 17.811)" fill="#fff" opacity="0.5"/>
      <rect id="Rectangle_316" data-name="Rectangle 316" width="3.997" height="10.677" transform="translate(306.332 17.811)" fill="#fff" opacity="0.5"/>
      <rect id="Rectangle_317" data-name="Rectangle 317" width="3.997" height="10.677" transform="translate(316.25 17.811)" fill="#fff" opacity="0.5"/>
      <rect id="Rectangle_318" data-name="Rectangle 318" width="3.997" height="10.677" transform="translate(286.598 35.572)" fill="#fff" opacity="0.5"/>
      <rect id="Rectangle_319" data-name="Rectangle 319" width="3.997" height="10.677" transform="translate(296.465 35.572)" fill="#fff" opacity="0.5"/>
      <rect id="Rectangle_320" data-name="Rectangle 320" width="3.997" height="10.677" transform="translate(327.433)" fill="#fff" opacity="0.5"/>
      <rect id="Rectangle_321" data-name="Rectangle 321" width="2.53" height="9.816" transform="translate(19.987 108.233)" fill="#fff" opacity="0.4"/>
      <rect id="Rectangle_322" data-name="Rectangle 322" width="2.53" height="9.816" transform="translate(28.943 108.233)" fill="#fff" opacity="0.4"/>
      <rect id="Rectangle_323" data-name="Rectangle 323" width="2.53" height="9.816" transform="translate(39.468 108.233)" fill="#fff" opacity="0.4"/>
      <rect id="Rectangle_324" data-name="Rectangle 324" width="2.53" height="9.816" transform="translate(48.424 108.233)" fill="#fff" opacity="0.4"/>
      <rect id="Rectangle_325" data-name="Rectangle 325" width="2.53" height="9.816" transform="translate(0 108.233)" fill="#fff" opacity="0.4"/>
      <rect id="Rectangle_326" data-name="Rectangle 326" width="2.53" height="9.816" transform="translate(9.007 108.233)" fill="#fff" opacity="0.4"/>
      <rect id="Rectangle_327" data-name="Rectangle 327" width="2.53" height="9.816" transform="translate(19.987 125.235)" fill="#fff" opacity="0.4"/>
      <rect id="Rectangle_328" data-name="Rectangle 328" width="2.53" height="9.816" transform="translate(28.943 125.235)" fill="#fff" opacity="0.4"/>
      <rect id="Rectangle_329" data-name="Rectangle 329" width="2.53" height="9.816" transform="translate(39.468 125.235)" fill="#fff" opacity="0.4"/>
      <rect id="Rectangle_330" data-name="Rectangle 330" width="2.53" height="9.816" transform="translate(48.424 125.235)" fill="#fff" opacity="0.4"/>
      <rect id="Rectangle_331" data-name="Rectangle 331" width="2.53" height="9.816" transform="translate(0 125.235)" fill="#fff" opacity="0.4"/>
      <rect id="Rectangle_332" data-name="Rectangle 332" width="2.53" height="9.816" transform="translate(9.007 125.235)" fill="#fff" opacity="0.4"/>
      <rect id="Rectangle_333" data-name="Rectangle 333" width="2.53" height="9.816" transform="translate(19.987 142.237)" fill="#fff" opacity="0.4"/>
      <rect id="Rectangle_334" data-name="Rectangle 334" width="2.53" height="9.816" transform="translate(28.943 142.237)" fill="#fff" opacity="0.4"/>
      <rect id="Rectangle_335" data-name="Rectangle 335" width="2.53" height="9.816" transform="translate(39.468 142.237)" fill="#fff" opacity="0.4"/>
      <rect id="Rectangle_336" data-name="Rectangle 336" width="2.53" height="9.816" transform="translate(48.424 142.237)" fill="#fff" opacity="0.4"/>
      <rect id="Rectangle_337" data-name="Rectangle 337" width="2.53" height="9.816" transform="translate(0 142.237)" fill="#fff" opacity="0.4"/>
      <rect id="Rectangle_338" data-name="Rectangle 338" width="2.53" height="9.816" transform="translate(9.007 142.237)" fill="#fff" opacity="0.4"/>
      <rect id="Rectangle_339" data-name="Rectangle 339" width="3.947" height="15.18" transform="translate(495.121 183.273)" fill="#fff" opacity="0.5"/>
      <rect id="Rectangle_340" data-name="Rectangle 340" width="3.947" height="15.18" transform="translate(507.214 183.273)" fill="#fff" opacity="0.5"/>
      <rect id="Rectangle_341" data-name="Rectangle 341" width="3.947" height="15.18" transform="translate(518.549 183.273)" fill="#fff" opacity="0.5"/>
      <rect id="Rectangle_342" data-name="Rectangle 342" width="3.238" height="13.308" transform="translate(533.071 161.06)" fill="#fff" opacity="0.33"/>
      <rect id="Rectangle_343" data-name="Rectangle 343" width="3.238" height="13.308" transform="translate(549.111 161.06)" fill="#fff" opacity="0.33"/>
      <rect id="Rectangle_344" data-name="Rectangle 344" width="3.238" height="13.308" transform="translate(565.101 161.06)" fill="#fff" opacity="0.33"/>
      <rect id="Rectangle_345" data-name="Rectangle 345" width="3.238" height="13.308" transform="translate(581.09 161.06)" fill="#fff" opacity="0.33"/>
      <rect id="Rectangle_346" data-name="Rectangle 346" width="3.238" height="13.308" transform="translate(533.071 188.485)" fill="#fff" opacity="0.33"/>
      <rect id="Rectangle_347" data-name="Rectangle 347" width="3.238" height="13.308" transform="translate(549.111 188.485)" fill="#fff" opacity="0.33"/>
      <rect id="Rectangle_348" data-name="Rectangle 348" width="3.238" height="13.308" transform="translate(565.101 188.485)" fill="#fff" opacity="0.33"/>
      <rect id="Rectangle_349" data-name="Rectangle 349" width="3.238" height="13.308" transform="translate(581.09 188.485)" fill="#fff" opacity="0.33"/>
      <rect id="Rectangle_350" data-name="Rectangle 350" width="3.238" height="13.308" transform="translate(533.071 216.568)" fill="#fff" opacity="0.33"/>
      <rect id="Rectangle_351" data-name="Rectangle 351" width="3.238" height="13.308" transform="translate(549.111 216.568)" fill="#fff" opacity="0.33"/>
      <rect id="Rectangle_352" data-name="Rectangle 352" width="3.238" height="13.308" transform="translate(565.101 216.568)" fill="#fff" opacity="0.33"/>
      <rect id="Rectangle_353" data-name="Rectangle 353" width="3.238" height="13.308" transform="translate(581.09 216.568)" fill="#fff" opacity="0.33"/>
      <rect id="Rectangle_354" data-name="Rectangle 354" width="3.238" height="13.308" transform="translate(533.071 244.651)" fill="#fff" opacity="0.33"/>
      <rect id="Rectangle_355" data-name="Rectangle 355" width="3.238" height="13.308" transform="translate(549.111 244.651)" fill="#fff" opacity="0.33"/>
      <rect id="Rectangle_356" data-name="Rectangle 356" width="3.238" height="13.308" transform="translate(565.101 244.651)" fill="#fff" opacity="0.33"/>
      <rect id="Rectangle_357" data-name="Rectangle 357" width="3.238" height="13.308" transform="translate(581.09 244.651)" fill="#fff" opacity="0.33"/>
      <rect id="Rectangle_358" data-name="Rectangle 358" width="3.238" height="13.308" transform="translate(533.071 270.153)" fill="#fff" opacity="0.33"/>
      <rect id="Rectangle_359" data-name="Rectangle 359" width="3.238" height="13.308" transform="translate(549.111 270.153)" fill="#fff" opacity="0.33"/>
      <rect id="Rectangle_360" data-name="Rectangle 360" width="3.238" height="13.308" transform="translate(565.101 270.153)" fill="#fff" opacity="0.33"/>
      <rect id="Rectangle_361" data-name="Rectangle 361" width="3.238" height="13.308" transform="translate(533.071 298.591)" fill="#fff" opacity="0.33"/>
      <rect id="Rectangle_362" data-name="Rectangle 362" width="3.238" height="13.308" transform="translate(549.111 298.591)" fill="#fff" opacity="0.33"/>
      <rect id="Rectangle_363" data-name="Rectangle 363" width="3.238" height="13.308" transform="translate(565.101 298.591)" fill="#fff" opacity="0.33"/>
      <rect id="Rectangle_364" data-name="Rectangle 364" width="3.238" height="13.308" transform="translate(581.09 270.153)" fill="#fff" opacity="0.33"/>
    </g>
    <rect id="Rectangle_365" data-name="Rectangle 365" width="607.2" height="607.2" transform="translate(450.997 607.2) rotate(180)" fill="none"/>
  </g>
</svg>
