<svg xmlns="http://www.w3.org/2000/svg" width="167.748" height="133.145" viewBox="0 0 167.748 133.145">
  <g id="Group_3731" data-name="Group 3731" transform="translate(-28.231 -19.02)">
    <path id="Path_5584" data-name="Path 5584" d="M361.4,57.161l10.515-2.8,1.536,21.348Z" transform="translate(-178.109 51.848)" fill="rgba(255,1,1,0)" stroke="#fff" stroke-miterlimit="10" stroke-width="1"/>
    <g id="Group_1939" data-name="Group 1939" transform="translate(30.203 89.959)">
      <path id="Path_5574" data-name="Path 5574" d="M234.5,170.256,185.741,116.41,160,151.042Z" transform="translate(-160 -116.41)" fill="none" stroke="#fff" stroke-miterlimit="10" stroke-width="1"/>
      <path id="Path_5575" data-name="Path 5575" d="M160,151.042l27.381-7.3-1.64-27.334Z" transform="translate(-160 -116.41)" fill="none" stroke="#fff" stroke-miterlimit="10" stroke-width="1"/>
      <path id="Path_5576" data-name="Path 5576" d="M187.381,168.92,160,176.218l74.5,19.213Z" transform="translate(-160 -141.586)" fill="none" stroke="#fff" stroke-miterlimit="10" stroke-width="1"/>
    </g>
    <g id="Group_1937" data-name="Group 1937" transform="translate(25.492 -16.803)">
      <g id="Group_1936" data-name="Group 1936" transform="translate(38.005 37.193)">
        <g id="Group_1935" data-name="Group 1935" transform="translate(0 0)">
          <path id="Path_5568" data-name="Path 5568" d="M234.008,50.537,220.365-30.71,171.73-9.669Z" transform="translate(-171.73 30.71)" fill="none" stroke="#fff" stroke-miterlimit="10" stroke-width="1"/>
          <path id="Path_5569" data-name="Path 5569" d="M171.73-9.669l32.014-2.6L220.365-30.71Z" transform="translate(-171.73 30.71)" fill="none" stroke="#fff" stroke-miterlimit="10" stroke-width="1"/>
          <path id="Path_5570" data-name="Path 5570" d="M203.744,4.71l-32.014,2.6,62.278,60.207Z" transform="translate(-171.73 13.728)" fill="none" stroke="#fff" stroke-miterlimit="10" stroke-width="1"/>
        </g>
      </g>
    </g>
    <path id="Path_5581" data-name="Path 5581" d="M93.834,161.416,46.86,146.205,61.394,131Z" transform="translate(73.647 -10.416)" fill="rgba(255,1,1,0)" stroke="#fff" stroke-miterlimit="10" stroke-width="1"/>
  </g>
</svg>
